<svg width="51" height="50" viewBox="0 0 51 50" fill="none" xmlns="http://www.w3.org/2000/svg">
<path d="M35.7876 50C35.1245 50 34.4886 49.7366 34.0198 49.2678C33.551 48.7989 33.2876 48.163 33.2876 47.5V41C33.3653 40.2523 33.2852 39.4967 33.0527 38.7818C32.8202 38.067 32.4403 37.4089 31.9376 36.85C31.6263 36.5124 31.4141 36.0957 31.324 35.6454C31.234 35.1952 31.2698 34.7289 31.4273 34.2976C31.5848 33.8663 31.8581 33.4867 32.2171 33.2005C32.5761 32.9143 33.007 32.7325 33.4626 32.675C39.5626 31.95 45.1876 30 45.1876 19.425C45.1895 17.4502 44.6067 15.519 43.5126 13.875C42.503 12.3616 42.1344 10.5097 42.4876 8.725C42.7129 7.5608 42.7129 6.3642 42.4876 5.2C40.6156 5.8329 38.853 6.7522 37.2626 7.925C36.9619 8.1385 36.6176 8.2829 36.2546 8.3477C35.8915 8.4126 35.5186 8.3963 35.1626 8.3C30.6509 7.0251 25.8742 7.0251 21.3626 8.3C21.0065 8.3963 20.6336 8.4126 20.2706 8.3477C19.9075 8.2829 19.5633 8.1385 19.2626 7.925C17.6624 6.7386 15.8811 5.8184 13.9876 5.2C13.7498 6.363 13.7498 7.562 13.9876 8.725C14.3153 10.5321 13.93 12.3959 12.9126 13.925C11.8232 15.5806 11.2411 17.5182 11.2376 19.5C11.2376 29.225 15.9376 31.825 22.9876 32.725C23.4489 32.7822 23.8851 32.967 24.2472 33.2584C24.6094 33.5499 24.8831 33.9366 25.0376 34.375C25.1829 34.8004 25.2109 35.2572 25.1185 35.6971C25.0261 36.1371 24.8168 36.544 24.5126 36.875C24.0263 37.3948 23.6531 38.0097 23.4164 38.6809C23.1798 39.3522 23.0848 40.0652 23.1376 40.775V47.5C23.1376 48.163 22.8742 48.7989 22.4053 49.2678C21.9365 49.7366 21.3006 50 20.6376 50C19.9745 50 19.3386 49.7366 18.8698 49.2678C18.401 48.7989 18.1376 48.163 18.1376 47.5V46.075C15.681 46.3575 13.1926 46.0283 10.894 45.1167C8.59539 44.2051 6.55779 42.7394 4.96256 40.85C4.14257 39.9411 3.15876 39.1948 2.06256 38.65C1.74411 38.5679 1.44494 38.4239 1.18213 38.2262C0.919331 38.0285 0.698031 37.781 0.530891 37.4978C0.363741 37.2146 0.254021 36.9012 0.207981 36.5756C0.161941 36.25 0.180491 35.9185 0.262561 35.6C0.344641 35.2815 0.488641 34.9824 0.686331 34.7196C0.884031 34.4568 1.13155 34.2355 1.41477 34.0683C1.69799 33.9012 2.01136 33.7915 2.33698 33.7454C2.66261 33.6994 2.99411 33.7179 3.31256 33.8C5.23569 34.5006 6.95409 35.6691 8.31259 37.2C10.8126 39.7 13.3126 41.9 18.0626 41C17.9791 39.6577 18.1748 38.3127 18.6376 37.05C13.4876 35.75 6.13759 32.05 6.13759 19.55C6.13099 16.5891 7.00079 13.6924 8.63759 11.225C8.94159 10.7695 9.05799 10.2142 8.96259 9.675C8.45739 6.9764 8.74389 4.18934 9.78759 1.65C9.92939 1.31141 10.144 1.00821 10.4162 0.761921C10.6884 0.515641 11.0115 0.332331 11.3626 0.225001C12.2126 -0.0249993 15.2626 -0.524999 21.0376 3.225C25.7125 2.10001 30.5876 2.10001 35.2626 3.225C41.0376 -0.524999 44.0876 -0.0499993 44.9126 0.225001C45.2636 0.332331 45.5867 0.515641 45.8589 0.761921C46.1311 1.00821 46.3458 1.31141 46.4876 1.65C47.5333 4.19758 47.8198 6.9933 47.3126 9.7C47.2614 9.9439 47.2594 10.1955 47.3066 10.4402C47.3538 10.6849 47.4493 10.9177 47.5876 11.125C49.229 13.5995 50.0991 16.5056 50.0876 19.475C50.0876 32.15 42.7876 35.825 37.5876 36.975C38.0456 38.3165 38.2326 39.7356 38.1376 41.15V47.5C38.1387 48.1379 37.896 48.752 37.4591 49.2168C37.0223 49.6815 36.4243 49.9617 35.7876 50Z" fill="#141414"/>
</svg>
